<svg height="608.50592" viewBox="0 0 822.5896 608.50592" width="822.5896" xmlns="http://www.w3.org/2000/svg"><path d="m508.43122 1355.7244c-8.8324-1.6661-19.96045-6.2442-25.60577-10.5341-15.48695-11.7688-22.23776-26.1426-25.98904-55.3357-.55603-4.3271-1.01096-8.8431-1.01096-10.0355v-2.1681l-12.5 2.7816c-55.30671 12.3073-114.18782 19.4132-184.83334 22.3061-22.85725.936-70.1803.9233-81.33333-.022-34.5545-2.9282-50.44599-11.0999-49.16027-25.279 1.15925-12.7844 15.37813-27.302 44.16027-45.088 16.95365-10.4766 49.53305-27.7168 79.65675-42.1525 56.25092-26.9562 128.21387-53.4218 194.00992-71.3505l14.33333-3.9057.47695-4.6096c.85956-8.3074 2.554-32.4675 2.29522-32.7263-.35295-.3529-23.93527 5.1089-41.1055 9.5204-42.53146 10.9273-88.83446 24.9287-172.66667 52.2121-19.98333 6.5036-40.63471 13.1506-45.89194 14.7711l-9.55861 2.9465-13.55196 15.7501c-26.81782 31.1676-67.83212 73.6489-87.169813 90.2875-14.77281 12.7109-25.96407 19.2995-34.28395 20.1839-2.49905.2657-7.39373.2942-10.87706.063-10.31986-.6835-14.6026-3.2106-19.6236-11.5791-2.622117-4.3704-2.889097-6.0106-1.338603-8.2242 1.959793-2.798 5.587543-1.3857 6.514683 2.5362.66381 2.8079 4.86375 7.1095 8.177 8.3748 4.30846 1.6455 15.99453 1.6707 20.73572.045 8.65349-2.9674 20.75141-12.2754 42.201463-32.4691 34.81614-32.777 58.36876-56.5066 73.74778-74.3018 7.12314-8.2422 6.89102-7.7977 3.48588-6.6755-52.59526 17.3332-63.18834 20.3706-79.23366 22.7185-8.759383 1.2818-18.039103.9939-21.235003-.6588-5.92668-3.0648-5.30954-9.4167 1.37385-14.1405 3.36291-2.3768 8.14809-4.9822 26.194493-14.2621 7.33333-3.771 21.28333-11.0489 31-16.1731 46.10267-24.3129 62.02489-32.2952 87.29297-43.7629l8.29298-3.7636 2.63473-4.3077c6.01759-9.8384 31.11334-53.5107 31.1124-54.1425-.00013-.091-1.50554-.2286-3.34536-.3062-11.48323-.4844-15.32062-10.2397-10.29095-26.1613 4.20645-13.31564 14.68902-24.95076 38.63656-42.88461 7.33333-5.49178 13.53461-10.30068 13.78063-10.68644.64198-1.00667 2.11109-9.12375 1.72176-9.51308-.52469-.5247-24.0684 7.33422-42.50239 14.18734-37.15685 13.81363-67.92744 26.48919-96.33333 39.68331-22.0803 10.25598-44.50941 19.95818-52.11994 22.54568-13.64192 4.6381-21.570063 2.6916-21.532093-5.2864.0207-4.3618 2.0444-8.2876 6.539083-12.6857 5.65458-5.53298 11.71403-9.31021 30.08063-18.75113 9.00111-4.62681 28.66565-15.02516 43.69898-23.10746 15.03334-8.0823 32.58334-17.44876 39-20.81435 6.41667-3.36559 11.06667-5.96061 10.33334-5.76671-6.24981 1.65256-17.35419 2.12038-24.33334 1.02516-5.0589-.79389-12.10262-4.006-13.48431-6.14919-3.97933-6.17245.29142-12.22072 13.08003-18.52409 9.6016-4.73252 15.69564-6.11271 43.07095-9.7548 10.93854-1.4553 16.19517-1.81212 26.33333-1.78755 6.96667.0169 13.93944.34519 15.49506.72957 2.79114.68966 2.95886.62632 12.73558-4.80997 5.44896-3.02986 15.72618-9.1963 22.83828-13.7032 54.723-34.6777 85.79668-55.45328 131.59775-87.98504 5.5-3.90655 16.75-11.89548 25-17.75316 25.73675-18.27367 38.40172-25.4907 45.77099-26.08223 4.10516-.32953 4.1056-.32937 5.31436 1.92343.83683 1.55962 1.19164 3.58711 1.15291 6.58804-.0503 3.8995-1.09967 7.11467-10.44395 32-5.7134 15.21572-10.83466 28.73302-11.38058 30.03845l-.99258 2.37351 15.12276-4.21739c71.18129-19.85088 125.88889-28.53553 165.12276-26.21277 27.0604 1.60206 41.5382 4.70599 57.42646 12.31178 9.29407 4.44911 14.55274 7.97988 20.83627 13.98986 12.5032 11.9589 19.9278 26.0973 28.70313 54.65834 5.18507 16.87569 7.81707 27.35248 9.477 37.72311 1.23807 7.73485 1.378 13.30899 1.94927 77.61491.33853 38.10488.68873 69.33958.77833 69.41058s5.11287-.2654 11.16287-.7474c6.05-.4821 14.20427-1.0857 18.12053-1.3414l7.12054-.4649 2.04613 2.0462c6.51627 6.5162-2.3642 14.3187-28.2872 24.8535l-9.33333 3.793-.46147 25.2511c-.70553 38.6026-1.97307 55.7915-5.3004 71.8768-7.38587 35.7053-30.49867 63.0295-79.96407 94.5341-26.66753 16.9847-67.7454 37.5406-113.27406 56.6838-28.77966 12.1009-48.02342 18.6967-63.8873 21.8976-9.25222 1.8668-29.83046 2.3758-37.50693.9278zm41.39423-8.5736c31.76841-6.7754 72.87346-22.4672 120-45.8099 45.8902-22.7303 73.66393-40.8553 94.36133-61.5796 20.87493-20.902 30.79413-39.7693 35.245-67.0392 2.70747-16.5886 4.59827-48.3377 4.268-71.6667l-.20767-14.6667-23.66666 8.0114c-13.01667 4.4063-25.94934 8.8463-28.7392 9.8667l-5.07254 1.8552 2.53894 5.0539c2.94426 5.8608 4.60613 12.4329 4.60613 18.2159 0 14.1892-10.96867 30.8429-29.71107 45.1103-23.38366 17.8005-64.04733 38.0526-113.28893 56.4225-38.40043 14.3255-82.01344 27.9538-128.50501 40.1556l-22.50501 5.9065.39513 4.3677c3.32646 36.7699 15.72151 55.7516 41.94822 64.2391 2.93334.9492 7.13334 2.038 9.33334 2.4195 2.2.3814 4.75.8275 5.66666.9913.91667.1638 7.06667.1817 13.66667.04 9.48243-.2039 13.60845-.6011 19.66667-1.8932zm-293-47.7729c69.39038-2.9195 125.6316-9.7183 182.40136-22.0498l15.73469-3.4178.39485-34.4275c.38764-33.798 1.46571-63.5225 3.68496-101.6016.72028-12.3589.88051-19.0843.4508-18.9213-.36666.1391-6.92434 1.9538-14.57261 4.0328-70.37194 19.1289-151.39353 49.9823-210.09405 80.0047-36.724 18.7825-59.85477 33.7624-81.82666 52.9924-10.91804 9.5555-16.09478 16.4908-17.40872 23.3225-2.1343 11.0973 12.58011 17.7026 45.23538 20.3063 6.72836.5365 61.66347.3625 76-.2407zm215.66666-29.9938c84.12853-21.093 168.9004-51.4932 211.0466-75.6837 22.80434-13.0889 44.9984-30.7157 54.1144-42.9783 3.12194-4.1996 7.02947-11.7565 8.10087-15.6667 1.0428-3.8058.909-12.064-.2688-16.5859-1.19407-4.5843-3.61673-10.4141-4.32773-10.4141-1.30994 0-66.9316 24.3651-95.99867 35.6441-10.08333 3.9126-53.65606 21.2157-96.82828 38.4514-43.17223 17.2356-78.99737 31.2401-79.61143 31.121-1.30052-.2522-1.74545-1.23-1.04945-2.3063.48551-.7508 120.27573-48.8794 169.48916-68.0963 14.11667-5.5123 42.61667-16.3923 63.33333-24.1777 20.71667-7.7855 37.79214-14.2641 37.94547-14.3968 1.4412-1.248-10.8992-13.6718-18.9268-19.0548-7.81967-5.2437-19.8976-11.1846-22.73807-11.1846-3.0838 0-36.332 4.7201-63.94726 9.0783-51.56486 8.1379-105.07812 18.8787-151.87282 30.4828l-16.79385 4.1645-.45377 4.3038c-.4675 4.4342-2.05987 33.3818-3.22556 58.6373-1.05132 22.7777-2.10221 78.3709-1.61662 85.5216.3807 5.6061.59634 6.4778 1.53608 6.21.60126-.1714 6.0432-1.5527 12.0932-3.0696zm-352.29092-97.5832c22.67733-4.635 65.68639-15.555 69.35882-17.6102 2.78514-1.5587 42.49701-55.5425 41.50634-56.4232-.99778-.8871-43.4445 19.8119-77.90757 37.9914-48.08265 25.3638-54.249593 28.9576-61.666673 35.9364l-4 3.7636 9-.3258c7.142063-.2585 12.036523-.9464 23.709083-3.3322zm128.62426-36.1922c97.59892-31.9802 163.38334-51.1806 209.70252-61.2057l5.03585-1.0899.81149-10.7955c3.52678-46.9182 12.89933-131.45796 17.78579-160.42656.89351-5.29705 1.5258-9.72977 1.40508-9.85049-.12071-.12072-7.83677 2.31798-17.14677 5.41933-27.06838 9.01701-81.41148 25.11024-102.59396 30.38231-4.12945 1.02776-7.74644 2.60132-13.33334 5.8006-9.29294 5.32153-28.08232 17.00293-33.91306 21.08383l-4.2464 2.97203-3.81996 9.57837c-4.9812 12.49012-11.17648 24.73848-23.55955 46.57838l-2.07897 3.6666 1.97564-1.2688c5.73004-3.6799 41.60025-31.63373 59.97564-46.73921 44.29304-36.41108 60.87234-48.1786 73.81714-52.3933 7.00752-2.28157 14.80434-2.21079 19.94816.18109 6.299 2.92904 11.46366 9.0087 13.51183 15.90565 3.79218 12.76965-2.36803 19.76575-26.27713 29.84276-12.18842 5.13707-29.99944 10.52578-44.45668 13.45034-8.51933 1.72338-9.87398 2.19599-13.66667 4.76807-5.10059 3.45906-10.54332 8.44298-10.54332 9.65455 0 1.46924 2.65605 2.43169 8.30563 3.00965 7.91901.81013 11.92577-.0461 17.77474-3.79811 10.34285-6.63485 16.36732-8.43292 18.89532-5.63951 2.32853 2.573.9948 4.1887-6.46244 7.8287-5.33662 2.60488-42.65958 26.34742-45.44087 28.90662-.32686.3007 8.94043-2.6079 20.59398-6.4637 32.38261-10.7144 38.33364-11.676 38.33364-6.1942 0 1.5788-1.38237 2.6841-12.01952 9.6105-20.81833 13.5559-28.04323 19.4765-27.0202 22.1425.32671.8514 1.34307.9719 5.88399.6975 4.88792-.2953 8.00796-1.224 28.48906-8.4805 12.65-4.482 25.45265-8.7868 28.45033-9.5664 5.33649-1.3878 5.47921-1.3912 6.83333-.1658.76066.6884 1.38301 2.0702 1.38301 3.0707 0 2.1975-1.72758 3.8327-13.66667 12.936-15.85094 12.086-20.82527 16.2609-31.01266 26.0287-11.98642 11.4926-16.25396 14.8791-23.16014 18.3785-8.77717 4.4475-14.41528 4.6138-17.49386.5161-5.37935-7.1601-7.87406-7.9604-26.12798-8.3825-15.9018-.3676-22.64763.2422-38.87202 3.5143-15.65144 3.1565-45.32668 11.9494-51.39599 15.2289-.76779.4149-6.06021 7.7007-11.76093 16.1907-10.15873 15.1293-17.84539 25.9202-25.09539 35.2303-1.99874 2.5666-3.8951 5.01-4.21413 5.4296-.66136.8699 16.61706-4.4516 50.46644-15.543zm232.059-25.8167c55.47481-13.7104 117.4646-25.5238 185.4068-35.3332l24.13246-3.4842-5.4658-1.7591c-11.76306-3.7859-25.66093-6.6571-41.79913-8.6354-9.33587-1.1444-55.49875-1.1329-69 .017-34.37708 2.9285-60.32229 6.5573-93.11527 13.0234l-14.21806 2.8036-.81283 10.9822c-1.94782 26.3172-1.95925 26.6653-.86494 26.3324.55611-.1691 7.63765-1.9452 15.73677-3.9469zm278.60766-13.5185c6.96667-2.7653 19.79167-8.179 28.5-12.0305l15.83334-7.0026v-8.2592c0-4.5425-.225-8.2568-.5-8.254-3.40514.035-92.47147 10.8924-96.13414 11.7189-1.40026.3159-.7626.829 4.45694 3.5859 11.58446 6.119 22.07593 14.4557 28.78953 22.8768 2.70793 3.3967 3.08447 3.6423 4.66667 3.0437.94653-.3582 7.421-2.9137 14.38766-5.679zm-501.33333-14.344c20.15532-7.666 43.01036-13.0602 60.33333-14.2399 8.52323-.5804 23.73028.7045 28.91535 2.4433 5.22955 1.7536 7.96956 3.8623 10.83077 8.335l2.29568 3.5888 3.25844-1.6512c4.45782-2.259 9.14892-6.3307 22.04998-19.1389 10.89442-10.8161 18.93734-17.5689 28.64978-24.0543 2.75-1.8363 5.28031-3.5931 5.6229-3.904.34259-.311-8.31835 2.4188-19.24654 6.0661-21.33032 7.119-28.17754 8.6578-32.88454 7.3903-3.50819-.9446-5.49182-3.4082-5.49182-6.8206 0-5.8122 3.09241-9.3145 15.21998-17.2374 4.09857-2.6775 7.36302-4.9572 7.25434-5.0659s-9.03486 2.8081-19.83596 6.4817c-21.21553 7.2156-26.54134 8.3568-29.612 6.3448-1.26338-.8278-1.69302-1.6845-1.69302-3.3757 0-1.9155.54192-2.7227 3.5-5.2129 4.48052-3.7719 9.33547-7.3037 20.08956-14.6144l8.643-5.8756h-2.99528c-7.56489 0-13.70982-3.6051-14.3558-8.42226-.54808-4.08714.74724-7.03319 4.76174-10.82992l3.58569-3.3912-2.78113-.71581c-1.52961-.39369-3.76952-1.02661-4.97758-1.4065-1.66906-.52485-2.49524-.47583-3.44082.20417-2.57265 1.85006-19.50371 15.22446-32.36272 25.56432-16.08994 12.9379-27.92824 21.8847-33.36918 25.2188-3.79103 2.3231-4.3605 3.0283-9.38744 11.6258-2.94337 5.0339-10.50224 17.9239-16.79748 28.6444s-11.4459 19.6411-11.4459 19.8236 1.575-.3004 3.5-1.0732 7.4-2.8884 12.16667-4.7014zm573.66667-17.3338c2.01666-1.1318 4.34146-2.5844 5.16613-3.228 1.2676-.9891 1.33647-1.2326.44547-1.5745-1.39354-.5348-15.81927-.5172-23.5092.029l-6.1024.4331.009 6.0669c.0147 9.9824-.81273 9.6194 10.54967 4.6266 5.376-2.3622 11.42453-5.221 13.4412-6.3528zm-323.33334.1649c22.09576-3.6519 41.29723-5.9887 67-8.1537 15.90278-1.3395 57.78687-1.1505 69.66667.3144 17.40147 2.1459 38.54413 7.0313 49.24273 11.3785 3.7094 1.5073 4.4844 1.5992 8.58407 1.0175 11.36007-1.6116 69.5056-8.8777 84.1732-10.5185l16.33333-1.8271.1904-47.9582c.2192-55.22351-.50886-82.1291-2.53353-93.62479-2.68613-15.25176-10.19-40.92272-17.14873-58.66667-9.85007-25.11658-20.93047-38.17577-40.4736-47.70166-20.0974-9.79606-37.29947-12.61244-77.03454-12.61239-25.41093.00003-28.79273.29214-57.66666 4.98105-19.82041 3.2187-34.7514 6.30709-55 11.37645-17.54094 4.39149-44.41681 11.78353-46.09916 12.67929-1.60876.85658-11.65244 32.50122-13.58482 42.80176l-.41009 2.18593 14.54703-4.82166c21.37052-7.08331 28.31429-8.89023 34.16121-8.88944 5.37227.00067 7.39473.98897 7.37562 3.60399-.014 1.91806-.56562 2.59844-3.69525 4.55799-2.88953 1.80921-35.33714 16.17209-48.62788 21.52504-4.4 1.77213-8.10258 3.29524-8.22795 3.3847-.95514.68147-8.25887 50.24566-12.41681 84.26229-2.94854 24.12242-9.68857 92.19662-9.68857 97.85452 0 .3441 5.775-.5411 12.83333-1.9672 7.05834-1.426 19.88334-3.758 28.5-5.1821zm-236.18016-41.0556c2.3586-.9543 3.09734-2.0943 11.9878-18.5 11.66479-21.52508 21.12102-41.14963 19.82827-41.14963-1.132 0-19.39743 14.34418-24.37256 19.14021-12.98535 12.51791-18.56851 22.83792-18.58877 34.35982-.007 3.6179.25344 4.7613 1.32542 5.8333 1.64366 1.6437 6.17838 1.7897 9.81984.3163zm-155.02624-10.0653c2.68019-.9619 7.72307-3.0867 11.2064-4.7218 22.41362-10.52068 55.87111-25.61198 67.72967-30.55004 28.44321-11.84411 69.26215-26.44742 100.63971-36.00467 6.94684-2.11593 13.04197-4.1677 13.54473-4.55948.70486-.54928.84415-2.24254.60851-7.397-.36937-8.07968-2.24532-12.6969-6.90306-16.99024-2.81698-2.59661-10.23552-6.69272-12.12346-6.6939-2.80656-.002-83.11588 39.86535-112.16276 55.67979-30.6618 16.69367-53.97202 31.02604-65.58318 40.32404-5.10559 4.0885-9.75016 9.6798-9.75016 11.7377 0 1.628 7.26485 1.1599 12.7936-.8244zm254.88109-44.05101c4.18779-2.45667 7.53191-4.54894 7.43137-4.64948-.17177-.17177-21.2395 6.47991-23.65556 7.46873-.99323.4065-.96925.51804.21617 1.00547.73333.30154 2.92195.56934 4.86359.59511 3.19261.0424 4.25854-.38036 11.14443-4.41983zm25.94755-2.94024c22.73705-7.28667 38.93922-14.56687 44.64234-20.05937l3.26459-3.14401-.42189-4.03639c-.50238-4.80657-2.26112-8.50715-5.65704-11.90307-3.63095-3.63095-6.51777-4.78357-11.98076-4.78357-9.83988 0-24.06026 6.68943-38.81517 18.25911-6.15291 4.82464-24.01198 19.93877-23.80477 20.14598.0951.0951 4.96784-1.3027 10.82834-3.10621 15.48926-4.76665 30.20327-8.07402 34.84156-7.83157 3.74169.19558 3.81776.23913 4.01788 2.30005.19165 1.97367.009 2.16535-3.01508 3.1699-4.79706 1.59333-29.11735 15.06274-27.19719 15.06274.32235 0 6.30608-1.83312 13.29719-4.07359zm-74.24804-24.59308c4.43956-2.93333 7.85324-5.33333 7.58598-5.33333s-3.89263.93741-8.05638 2.08315c-5.97253 1.64344-7.57046 2.32944-7.57046 3.25 0 .64176-.1875 2.10435-.41667 3.25018-.22917 1.14584-.23615 2.08334-.0155 2.08334.22063 0 4.0335-2.4 8.47305-5.33334zm7.83953-9.6999c13.37763-3.59024 14.04271-3.85095 22.43753-8.79572 19.72474-11.61841 32.83614-17.36465 57.34874-25.13384 25.61003-8.11702 46.50883-15.03177 61.32265-20.28972l14.65597-5.20192.56599-2.60612c2.22133-10.22827 5.09831-21.52405 7.86798-30.89185 1.78099-6.02382 3.11107-11.0795 2.95572-11.23484-.15535-.15536-7.12677 1.83808-15.49205 4.42986-39.37701 12.19999-95.917 32.59572-130.79265 47.18097-20.14908 8.42649-52.0839 22.46636-52.08241 22.89758.00065.19003 1.3199 1.1786 2.93168 2.19683 4.28682 2.70819 8.22788 7.30021 10.60978 12.36227 1.85666 3.9458 2.12436 5.26946 2.3501 11.61974.14066 3.95718.54135 7.16666.89472 7.16666.35199 0 6.8438-1.66495 14.42625-3.6999zm-100.21373-8.84174c12.50392-3.4392 30.68559-10.52114 42.23601-16.45133l4.43066-2.27478-10.06921-.0328c-7.65792-.0249-14.52281.524-28.66667 2.29227-21.37233 2.67196-24.61914 3.38158-31.93079 6.97872-5.43398 2.67339-12.39482 8.14958-11.5131 9.05753.2678.27576 2.0678 1.06536 4 1.75467 3.02369 1.07869 4.95266 1.21424 13.84644.97302 8.89758-.24132 11.35225-.56052 17.66666-2.2973zm156.33334-6.13595c30.08381-8.30437 74.97143-22.44525 89.65394-28.24355l7.3206-2.89099.75333-3.7606c.41433-2.06833.69658-3.7606.62723-3.7606-1.10985 0-78.21467 26.30252-85.10572 29.03183-8.57806 3.3975-24.63563 11.04759-27.24938 12.98206-1.1909.8814-2.46926 1.18804 14-3.35815zm-56-32.65323c26.3569-11.39862 49.41117-20.53075 78.33333-31.02898 21.82793-7.92315 68.94066-23.77987 84.02427-28.28002l6.69093-1.99622 1.87604-5.84865c2.28617-7.12722 10.80855-29.53546 17.49523-46.00095 2.71431-6.68377 5.12746-13.55571 5.36256-15.27098l.42746-3.11868-2.27158.42143c-1.24936.23178-4.97158 1.7989-8.27158 3.48248-13.38068 6.82648-25.7987 15.00193-73.66666 48.49869-14.11667 9.87847-35.86667 24.7238-48.33334 32.98962-36.00367 23.87163-72.11974 47.55124-79 51.79659-7.25236 4.47494-8.65627 5.56641-5.33333 4.14638 1.28333-.54842 11.48333-4.95424 22.66667-9.79071zm167.7742-4.70892c9.73206-4.15927 28.98833-13.41995 28.6365-13.77179-.14219-.14218-7.86777 2.02312-17.16795 4.81178-9.30018 2.78867-17.41357 5.21803-18.02975 5.39858-.61619.18055-1.31358 1.28968-1.54978 2.46473-.23618 1.17504-.57725 2.66144-.75792 3.30311s-.0349 1.16667.32398 1.16667c.35885 0 4.20407-1.51788 8.54492-3.37308z" stroke-width=".666667" transform="translate(-25.909409 -748.05467)"/></svg>