<?xml version="1.0" encoding="UTF-8" standalone="no"?>
<svg
   width="87.008003"
   viewBox="0 0 87.008003 31.999979"
   fill="none"
   class="svelte-1lohfl2"
   height="31.999979"
   version="1.1"
   id="svg6222"
   sodipodi:docname="svgexport-3.svg"
   inkscape:version="1.2.2 (732a01da63, 2022-12-09)"
   xmlns:inkscape="http://www.inkscape.org/namespaces/inkscape"
   xmlns:sodipodi="http://sodipodi.sourceforge.net/DTD/sodipodi-0.dtd"
   xmlns="http://www.w3.org/2000/svg"
   xmlns:svg="http://www.w3.org/2000/svg">
  <defs
     id="defs6226" />
  <sodipodi:namedview
     id="namedview6224"
     pagecolor="#ffffff"
     bordercolor="#000000"
     borderopacity="0.25"
     inkscape:showpageshadow="2"
     inkscape:pageopacity="0.0"
     inkscape:pagecheckerboard="0"
     inkscape:deskcolor="#d1d1d1"
     showgrid="false"
     inkscape:zoom="15.977273"
     inkscape:cx="44"
     inkscape:cy="16.554765"
     inkscape:window-width="1920"
     inkscape:window-height="991"
     inkscape:window-x="-9"
     inkscape:window-y="-9"
     inkscape:window-maximized="1"
     inkscape:current-layer="svg6222" />
  <g
     id="g6266"
     transform="translate(0,-0.0012207)">
    <path
       d="M 87.008,0.0012207 H 0 V 32.0012 h 87.008 z"
       fill="#d60c18"
       id="path6146" />
    <path
       d="m 9.42545,9.09504 c 0.47569,0.30291 1.05115,0.40734 1.60295,0.29091 0.5265,-0.128 1.0501,-0.27345 1.5709,-0.42182 0.9134,-0.26181 1.8211,-0.544 2.7403,-0.79127 C 15.7964,8.05068 16.256,7.93432 16.7185,7.8325 16.928,7.79964 17.1344,7.74904 17.3353,7.68122 17.5418,7.59977 17.7251,7.46886 17.9171,7.39032 18.208,7.25359 18.4989,7.1285 18.8102,7.00632 19.6829,6.65141 21.5505,6.21213 21.088,4.86813 20.9425,4.43468 20.5062,4.24268 20.1251,4.04195 19.7227,3.86653 19.2786,3.81 18.8451,3.87904 18.4241,3.88407 18.016,4.02487 17.6815,4.2805 17.2276,4.84777 16.4742,5.01941 15.9069,5.47322 15.7062,5.6245 15.4327,5.62741 15.232,5.78159 c -0.0989,0.07563 -0.1309,0.13963 -0.2502,0.17454 -0.104,0.01498 -0.209,0.02276 -0.3142,0.02328 -0.1978,0.02618 -0.3927,0.05236 -0.5818,0.08436 -0.5637,0.07444 -1.1147,0.22515 -1.6378,0.448 -0.2617,0.12795 -0.5127,0.2768 -0.7505,0.44509 -0.2299,0.15418 -0.448,0.09309 -0.7099,0.11055 -0.2618,0.01745 -0.4741,0.04363 -0.7127,0.07854 L 9.56509,7.26522 9.20727,7.31759 C 9.08631,7.30905 8.96483,7.32387 8.84945,7.36122 8.76336,7.43662 8.7057,7.53926 8.68612,7.65202 c -0.01959,0.11276 7e-5,0.22882 0.0557,0.32884 0.20654,0.43055 0.23563,0.85236 0.68363,1.11418 z"
       fill="#ffffff"
       id="path6148" />
    <path
       d="m 44.9978,8.47249 c 0.4277,-0.11345 0.7971,-0.20946 1.024,-0.62255 0.0698,-0.128 0.1455,-0.256 0.2095,-0.38691 C 46.3742,7.20774 46.4428,6.91749 46.4291,6.62522 46.3185,6.39665 46.1423,6.20623 45.9229,6.07831 45.5091,5.87502 45.065,5.74042 44.608,5.67976 44.0785,5.56631 43.5258,5.4354 42.9905,5.36558 42.6737,5.32853 42.3526,5.35323 42.0451,5.43831 c -0.6087,0.16238 -1.2024,0.37649 -1.7746,0.64 -0.6574,0.29091 -1.4545,0.11636 -2.0683,0.51782 -0.2654,0.12487 -0.5512,0.20075 -0.8437,0.224 -0.3636,0.08436 -0.7069,0.22981 -1.0618,0.34618 -0.608,0.19491 -1.216,0.384 -1.8327,0.55273 -0.4393,0.11927 -0.896,0 -1.3324,0.20945 -0.1693,0.12292 -0.3483,0.23189 -0.5352,0.32582 -0.1949,0.06691 -0.3928,0.15709 -0.5819,0.224 C 31.3164,8.72267 30.56,8.8914 29.8444,9.08049 28.576,9.51685 27.1593,9.32776 25.856,9.57213 25.4778,9.66813 25.0822,9.7234 24.8,10.0259 c -0.0931,0.448 0.2327,0.6197 0.5236,0.832 0.2909,0.2124 0.544,0.6284 0.8931,0.8495 0.3152,0.1743 0.6452,0.3204 0.9862,0.4364 0.7622,0.3083 1.4778,0.7127 2.2982,0.8727 0.4509,0.0873 1.376,0.1949 1.7862,-0.0786 0.4829,-0.3229 1.0269,-0.5469 1.4952,-0.896 0.2182,-0.1629 0.3928,-0.3752 0.6168,-0.5294 0.2525,-0.1388 0.4972,-0.2913 0.7331,-0.4567 0.2893,-0.2951 0.6125,-0.5548 0.9629,-0.7739 0.4509,-0.0756 0.8727,-0.58177 1.3207,-0.2647 0.2153,0.0989 0.1135,0.2909 0.1251,0.4858 0.0116,0.1949 0.1542,0.4306 0.1542,0.6633 -0.0067,0.2249 -0.0429,0.4479 -0.1077,0.6633 v 0.3607 c 0.224,4.3258 -0.1512,8.4364 -0.5294,12.8 -0.1746,0.5382 0.0378,1.0298 0.16,1.5506 0.0168,0.2068 0.0618,0.4104 0.1338,0.605 0.2119,0.3746 0.5297,0.6782 0.9135,0.8728 0.7709,0.256 1.8501,0.384 2.4581,-0.2909 0.6197,-0.2909 0.8117,-0.8728 0.9019,-1.5099 0.0877,-0.5647 0.1449,-1.1338 0.1716,-1.7047 -6e-4,-0.4509 -0.0693,-0.8991 -0.2036,-1.3294 -0.0524,-0.224 -0.067,-0.4539 -0.1193,-0.6779 -0.0873,-0.3549 -0.2007,-0.7098 -0.2618,-1.0705 -0.2641,-1.7251 -0.3964,-3.4679 -0.3957,-5.2131 0.0378,-1.1636 -0.2647,-2.6182 -0.416,-3.6247 -0.3403,-0.7564 0.1338,-1.5127 -0.2269,-2.2691 -0.16,-0.37528 -0.0902,-0.83492 -0.0931,-1.23056 0,-0.33745 0.2328,-0.46254 0.5062,-0.608 0.1026,-0.05511 0.1999,-0.11937 0.2909,-0.192 0.1,-0.06651 0.2115,-0.11386 0.3287,-0.13963 0.1106,-0.03782 0.2211,-0.06982 0.3346,-0.09891 0.8145,-0.20946 1.7309,-0.34327 2.4814,0.13673 0.1935,0.15048 0.4166,0.25852 0.6546,0.31709 0.4368,0.09567 0.8906,0.08168 1.3207,-0.04073 z"
       fill="#ffffff"
       id="path6150" />
    <path
       d="m 30.2691,24.8158 c -0.1665,-0.1489 -0.3513,-0.2759 -0.5498,-0.3782 -0.2269,-0.0873 -0.4771,-0.1018 -0.7069,-0.1833 -0.584,-0.2272 -1.1403,-0.52 -1.6582,-0.8727 -0.1103,-0.0871 -0.227,-0.1659 -0.3491,-0.2357 -0.1206,-0.032 -0.2447,-0.0496 -0.3695,-0.0523 -0.2356,-0.0495 -0.3752,-0.2677 -0.5818,-0.3753 -0.096,-0.0524 -0.2211,-0.0698 -0.2909,-0.1571 -0.2143,-0.1828 -0.4532,-0.3346 -0.7098,-0.4509 -0.2327,-0.1571 -0.4887,-0.2065 -0.7273,-0.3433 -0.2042,-0.128 -0.3986,-0.2709 -0.5818,-0.4276 -0.3308,-0.3345 -0.701,-0.6276 -1.1025,-0.8727 -1.4139,-0.6546 -2.3768,-2.2953 -3.427,-3.3746 -0.6807,-0.6225 -1.5476,-1.4894 -1.5301,-2.5687 0.2909,-0.6778 1.1141,-0.9047 1.7192,-1.2276 0.7564,-0.5644 1.8328,-0.8728 2.2662,-1.7746 0.076,-0.1645 0.1106,-0.3451 0.101,-0.5261 -0.0096,-0.181 -0.0633,-0.3569 -0.1563,-0.5124 -0.2472,-0.51202 -0.8727,-0.49166 -1.3614,-0.68075 -0.3036,-0.02653 -0.6095,0.0091 -0.8989,0.10473 -0.4798,0.18182 -0.9166,0.46112 -1.2829,0.82032 -0.1746,0.1571 -0.3288,0.3549 -0.512,0.5033 -0.1975,0.1226 -0.4137,0.212 -0.64,0.2647 -0.1108,0.0594 -0.2379,0.0813 -0.3622,0.0624 C 16.4328,11.5385 16.318,11.4799 16.2298,11.3903 16.0476,10.8859 15.7864,10.4136 15.456,9.99104 15.347,9.93359 15.227,9.89988 15.104,9.89213 14.9876,9.86304 14.9149,9.76995 14.8131,9.74086 14.6415,9.6914 14.4175,9.81359 14.2313,9.81359 14.003,9.78538 13.7714,9.79819 13.5476,9.8514 c -0.2605,0.10437 -0.4835,0.2848 -0.64,0.5178 -0.1745,0.2589 -0.0989,0.4538 -0.1338,0.7418 -0.0203,0.1949 -0.0669,0.384 -0.1047,0.5819 -0.0463,0.1906 -0.0726,0.3856 -0.0786,0.5818 0.0267,0.1782 0.0665,0.3542 0.1193,0.5265 0.0147,0.2566 -0.036,0.5126 -0.1475,0.7442 -0.1114,0.2315 -0.2799,0.4309 -0.4896,0.5795 -0.1889,0.1608 -0.3935,0.3021 -0.6109,0.4218 -0.2531,0.1396 -0.5411,0.1745 -0.8029,0.2909 -0.2406,0.1161 -0.472,0.2503 -0.69236,0.4014 -0.224,0.1484 -0.44509,0.2909 -0.68072,0.4277 -0.23564,0.1367 -0.51782,0.1687 -0.75055,0.2909 -0.416,0.2065 -0.90763,0.2443 -1.32363,0.416 -0.45382,0.0931 -1.2451,-0.0757 -1.45455,0.4887 0.07814,0.5031 0.31694,0.9674 0.68073,1.3236 0.24436,0.547 0.96291,0.736 1.45454,1.0968 0.736,0.2443 1.47491,-0.1135 2.17314,-0.0582 0.2647,0.9833 0.189,2.0014 -0.49168,2.72 -0.12587,0.3867 -0.31565,0.7495 -0.56146,1.0734 -0.12173,0.1562 -0.25391,0.3039 -0.39563,0.4422 -0.128,0.1222 -0.17746,0.2909 -0.30546,0.4189 -0.14087,0.1746 -0.302,0.3319 -0.48,0.4684 C 7.56945,24.4987 7.47636,24.3067 7.26982,24.1787 7.14058,24.1028 7.00018,24.0479 6.85382,24.0158 6.56501,23.9545 6.26571,23.9635 5.98109,24.0419 5.77968,24.1381 5.61522,24.2975 5.51273,24.4958 5.3597,24.6422 5.25772,24.8339 5.22182,25.0427 c 0.02404,0.1301 0.05709,0.2584 0.09891,0.384 0.05527,0.2705 -0.04655,0.4363 0.13963,0.6865 0.14546,0.192 0.10473,0.2706 0.13673,0.5004 0.02321,0.106 0.06994,0.2054 0.13673,0.2909 0.12532,0.1569 0.27338,0.2941 0.43927,0.4073 0.14154,0.1056 0.29725,0.1908 0.46255,0.2531 0.16085,0.0272 0.32012,0.0631 0.47709,0.1076 0.28421,0.1642 0.60863,0.2458 0.93672,0.2356 0.55273,-0.0262 1.024,-0.2589 1.54182,-0.4247 0.24856,-0.0588 0.48963,-0.1456 0.71853,-0.2589 0.2093,-0.1405 0.4041,-0.3013 0.5818,-0.48 0.2415,-0.2124 0.4742,-0.4335 0.6953,-0.6662 0.3992,-0.4096 0.7605,-0.8546 1.0793,-1.3294 0.1608,-0.2345 0.3075,-0.4783 0.4393,-0.7302 0.1192,-0.224 0.1745,-0.4655 0.2909,-0.6924 0.0552,-0.1251 0.1396,-0.2356 0.192,-0.3607 0.107,-0.2292 0.1956,-0.4665 0.2647,-0.7098 0.0496,-0.2182 0.1309,-0.428 0.2414,-0.6226 0.1561,-0.3697 0.2486,-0.7631 0.2735,-1.1636 0.032,-0.1775 0.0989,-0.3491 0.1309,-0.5266 0.032,-0.1774 0.0262,-0.4334 0.0727,-0.6458 0.0715,-0.3111 0.1986,-0.6068 0.3753,-0.8727 0.432,0.0822 0.815,0.3295 1.0676,0.6894 0.1478,0.1681 0.3061,0.3265 0.4742,0.4742 0.1978,0.1688 0.3288,0.3986 0.5266,0.5615 0.5818,0.4596 0.9803,1.1433 1.3963,1.7454 0.5149,0.7331 1.0037,1.4837 1.5157,2.2197 0.512,0.736 0.9542,1.4254 1.6378,1.9462 0.5064,0.4387 1.0409,0.8439 1.6,1.213 0.416,0.2386 0.9542,0.1688 1.4138,0.1775 0.8402,-0.0029 1.6795,-0.0553 2.5135,-0.1571 0.4131,-0.0436 0.8291,-0.0873 1.2421,-0.1164 0.1946,0.0058 0.3894,-0.0058 0.5819,-0.0349 0.3491,-0.0378 0.7069,-0.1978 1.0531,-0.2531 0.3461,-0.0552 0.768,-0.125 1.0007,-0.4101 0.0948,-0.1147 0.1617,-0.2497 0.1955,-0.3946 0.0338,-0.1449 0.0336,-0.2956 -6e-4,-0.4403 -0.1426,-0.4015 -0.576,-0.6022 -0.896,-0.8291 z"
       fill="#ffffff"
       id="path6152" />
    <path
       d="m 53.6785,21.7961 c 0.1624,0.0025 0.3245,-0.0141 0.483,-0.0494 0.152,-0.0339 0.2994,-0.0856 0.4392,-0.1542 l 0.1048,-0.3549 h -0.0524 c -0.1215,0.1039 -0.2603,0.1857 -0.4102,0.2414 -0.1422,0.058 -0.2944,0.0876 -0.448,0.0873 -0.1488,0.0099 -0.2979,-0.0161 -0.4346,-0.0758 -0.1367,-0.0598 -0.257,-0.1515 -0.3508,-0.2675 -0.1983,-0.2912 -0.2936,-0.6404 -0.2706,-0.992 -0.0211,-0.3337 0.0734,-0.6645 0.2676,-0.9367 0.0869,-0.1114 0.1996,-0.2 0.3283,-0.2583 0.1287,-0.0583 0.2696,-0.0844 0.4107,-0.0762 0.1843,-0.0065 0.3667,0.0389 0.5265,0.1309 0.1402,0.0792 0.2444,0.2095 0.2909,0.3636 h 0.064 c 0.0096,-0.0978 0.0252,-0.195 0.0466,-0.2909 0.0178,-0.0864 0.0401,-0.1719 0.0669,-0.256 -0.1588,-0.0695 -0.3233,-0.125 -0.4917,-0.1658 -0.1606,-0.0348 -0.3244,-0.0524 -0.4887,-0.0524 -0.4533,-0.0239 -0.8984,0.1283 -1.2422,0.4248 -0.1551,0.1434 -0.2771,0.319 -0.3575,0.5144 -0.0804,0.1955 -0.1172,0.4061 -0.1079,0.6172 -0.0126,0.2132 0.0192,0.4266 0.0933,0.6269 0.0741,0.2003 0.1889,0.3831 0.3372,0.5367 0.3322,0.2811 0.7617,0.4201 1.1956,0.3869 z"
       fill="#ffffff"
       id="path6154" />
    <path
       d="m 57.1345,20.6849 c 0.0088,-0.1497 -0.0124,-0.2997 -0.0623,-0.441 -0.05,-0.1414 -0.1277,-0.2714 -0.2286,-0.3823 -0.2236,-0.1831 -0.5073,-0.2765 -0.796,-0.2619 -0.2886,0.0146 -0.5615,0.1361 -0.7655,0.3408 -0.204,0.2047 -0.3245,0.4781 -0.3381,0.7668 -0.0135,0.2886 0.0808,0.5721 0.2647,0.795 0.1089,0.1013 0.2373,0.1794 0.3773,0.2294 0.1401,0.05 0.2889,0.071 0.4373,0.0615 0.1324,0.0133 0.2661,3e-4 0.3934,-0.0381 0.1274,-0.0385 0.246,-0.1017 0.3489,-0.1859 0.1029,-0.0843 0.1882,-0.1881 0.2511,-0.3054 0.0628,-0.1173 0.1018,-0.2458 0.1149,-0.3782 0.0058,-0.0668 0.0058,-0.134 0,-0.2007 z m -0.7534,0.7069 c -0.0324,0.0654 -0.0833,0.1199 -0.1464,0.1566 -0.0631,0.0367 -0.1356,0.0541 -0.2085,0.0499 -0.0722,0.0045 -0.1441,-0.0127 -0.2063,-0.0495 -0.0623,-0.0369 -0.112,-0.0916 -0.1428,-0.157 -0.0834,-0.2258 -0.1171,-0.4669 -0.0989,-0.7069 -0.0151,-0.2423 0.0206,-0.4851 0.1047,-0.7128 0.051,-0.0932 0.1369,-0.1624 0.2389,-0.1924 0.102,-0.03 0.2117,-0.0184 0.3051,0.0324 0.0669,0.0378 0.1222,0.0931 0.16,0.16 0.0837,0.2268 0.1194,0.4685 0.1047,0.7098 0.0144,0.2418 -0.0233,0.4839 -0.1105,0.7099 z"
       fill="#ffffff"
       id="path6156" />
    <path
       d="m 60.7971,21.738 c 0,-0.1455 -0.0058,-0.2851 -0.0175,-0.419 v -0.6632 c 0.0059,-0.2004 -0.0058,-0.4009 -0.0349,-0.5993 -0.0202,-0.0992 -0.0641,-0.192 -0.128,-0.2706 -0.0589,-0.0692 -0.1338,-0.1231 -0.2182,-0.157 -0.1116,-0.0416 -0.2308,-0.0589 -0.3497,-0.0509 -0.1188,0.008 -0.2346,0.0412 -0.3397,0.0974 -0.1209,0.0773 -0.2208,0.1832 -0.2909,0.3084 -0.0436,-0.1199 -0.1254,-0.2221 -0.2327,-0.2909 -0.1128,-0.072 -0.2445,-0.1084 -0.3782,-0.1048 -0.1239,-0.0035 -0.2468,0.0235 -0.3578,0.0786 -0.1132,0.0662 -0.212,0.1542 -0.291,0.2589 v -0.2909 h -0.6138 c 0,0.2385 0.0146,0.4451 0.0204,0.6196 0.0058,0.1746 0,0.3171 0,0.4335 v 0.4363 c 0,0.1775 0,0.3869 -0.0204,0.6197 h 0.6517 V 21.703 c 0,-0.1687 -0.0175,-0.2909 -0.0175,-0.3578 v -0.7069 c -0.0114,-0.1843 0.0174,-0.369 0.0844,-0.5411 0.0303,-0.045 0.0713,-0.0818 0.1192,-0.1073 0.0479,-0.0255 0.1014,-0.0388 0.1557,-0.0388 0.0543,0 0.1077,0.0133 0.1556,0.0388 0.048,0.0255 0.0889,0.0623 0.1193,0.1073 0.07,0.2357 0.0957,0.4823 0.0756,0.7273 v 0.4393 c 0,0.1483 -0.0145,0.3142 -0.0262,0.4771 H 59.52 v -1.1026 c -0.0139,-0.1832 0.014,-0.3672 0.0815,-0.5382 0.0327,-0.0468 0.0762,-0.085 0.1268,-0.1114 0.0507,-0.0264 0.107,-0.0402 0.1641,-0.0402 0.0571,0 0.1133,0.0138 0.164,0.0402 0.0506,0.0264 0.0942,0.0646 0.1269,0.1114 0.068,0.2081 0.0947,0.4275 0.0785,0.6458 v 0.4597 c 0,0.1687 -0.0145,0.3404 -0.0291,0.5324 h 0.5818 z"
       fill="#ffffff"
       id="path6158" />
    <path
       d="m 62.6531,21.7379 h 0.6574 v -1.0996 c -0.0138,-0.1832 0.014,-0.3672 0.0815,-0.5382 0.0327,-0.0468 0.0762,-0.085 0.1269,-0.1114 0.0506,-0.0264 0.1069,-0.0402 0.164,-0.0402 0.0571,0 0.1134,0.0138 0.164,0.0402 0.0507,0.0264 0.0942,0.0646 0.1269,0.1114 0.0681,0.2081 0.0948,0.4275 0.0786,0.6458 v 0.4597 c 0,0.1687 0,0.3403 -0.0291,0.5323 h 0.6574 c 0,-0.1454 -0.0058,-0.285 -0.0174,-0.4189 v -0.6632 c -0.0147,-0.1964 -0.0469,-0.3911 -0.096,-0.5819 -0.0203,-0.0991 -0.0642,-0.1919 -0.128,-0.2705 -0.059,-0.0693 -0.1338,-0.1232 -0.2182,-0.1571 -0.1117,-0.0415 -0.2309,-0.0589 -0.3497,-0.0508 -0.1189,0.008 -0.2347,0.0412 -0.3398,0.0974 -0.1208,0.0773 -0.2207,0.1832 -0.2909,0.3083 -0.0436,-0.1198 -0.1253,-0.222 -0.2327,-0.2909 -0.1128,-0.0719 -0.2445,-0.1084 -0.3782,-0.1047 -0.1239,-0.0036 -0.2468,0.0234 -0.3578,0.0785 -0.1138,0.0653 -0.2128,0.1535 -0.2909,0.2589 v -0.2909 h -0.6167 c 0,0.2386 0.0174,0.4451 0.0203,0.6197 0.0029,0.1745 0,0.3171 0,0.4334 v 0.4364 c 0,0.1774 0,0.3869 -0.0203,0.6196 h 0.64 v -0.0407 c 0,-0.1687 -0.0146,-0.2909 -0.0146,-0.3578 v -0.7244 c -0.0139,-0.1842 0.014,-0.3691 0.0815,-0.5411 0.0248,-0.0363 0.0565,-0.0674 0.0933,-0.0914 0.0369,-0.0241 0.0781,-0.0406 0.1213,-0.0487 0.0432,-0.0082 0.0876,-0.0077 0.1307,0.0014 0.043,0.0091 0.0838,0.0266 0.1201,0.0514 0.0347,0.023 0.0643,0.0527 0.0873,0.0873 0.0672,0.2362 0.0928,0.4823 0.0756,0.7273 v 0.4393 c 0,0.1483 -0.0378,0.3112 -0.0465,0.4741 z"
       fill="#ffffff"
       id="path6160" />
    <path
       d="m 67.2494,20.6849 c 0.0102,-0.1498 -0.0104,-0.3001 -0.0604,-0.4417 -0.0501,-0.1416 -0.1285,-0.2714 -0.2305,-0.3816 -0.224,-0.1773 -0.5053,-0.2659 -0.7905,-0.2491 -0.2852,0.0168 -0.5542,0.1379 -0.7558,0.3402 -0.2016,0.2024 -0.3218,0.4718 -0.3376,0.7571 -0.0158,0.2852 0.0739,0.5662 0.2519,0.7896 0.2301,0.1876 0.5178,0.2901 0.8146,0.2901 0.2968,0 0.5845,-0.1025 0.8145,-0.2901 0.1012,-0.1091 0.1793,-0.2374 0.2298,-0.3774 0.0505,-0.1399 0.0722,-0.2886 0.064,-0.4371 z m -0.7563,0.7069 c -0.0526,0.0932 -0.14,0.1618 -0.2431,0.1907 -0.103,0.0289 -0.2133,0.0158 -0.3067,-0.0365 -0.0643,-0.0367 -0.1176,-0.09 -0.1542,-0.1542 -0.084,-0.2258 -0.1196,-0.4666 -0.1047,-0.7069 -0.0151,-0.2423 0.0206,-0.4851 0.1047,-0.7128 0.0252,-0.0473 0.0597,-0.0891 0.1014,-0.1229 0.0416,-0.0337 0.0897,-0.0588 0.1412,-0.0737 0.0515,-0.015 0.1055,-0.0194 0.1588,-0.0131 0.0532,0.0063 0.1047,0.0232 0.1513,0.0497 0.0669,0.0378 0.1222,0.0931 0.16,0.16 0.0863,0.2262 0.123,0.4683 0.1076,0.7099 0.0154,0.2415 -0.0213,0.4836 -0.1076,0.7098 z"
       fill="#ffffff"
       id="path6162" />
    <path
       d="m 68.9047,20.0914 c 0.0696,0.1987 0.0964,0.4099 0.0786,0.6196 v 0.5819 c 0.0053,0.1497 -0.0025,0.2996 -0.0233,0.448 h 0.6545 c 0,-0.1135 -0.0174,-0.2328 -0.0232,-0.355 -0.0059,-0.1221 0,-0.253 0,-0.3898 v -0.5556 c 0.0053,-0.1443 -0.0054,-0.2887 -0.032,-0.4306 -0.0169,-0.0783 -0.0529,-0.1512 -0.1048,-0.2123 -0.0599,-0.0721 -0.1369,-0.1281 -0.224,-0.1629 -0.1089,-0.0398 -0.2248,-0.0575 -0.3406,-0.052 -0.1159,0.0055 -0.2295,0.034 -0.3343,0.084 -0.1151,0.0659 -0.2144,0.1563 -0.2909,0.2647 v -0.2909 h -0.5992 c 0.0116,0.1745 0.0203,0.3491 0.0261,0.5236 v 1.0328 c 0,0.1716 0,0.3578 -0.0261,0.5527 h 0.637 c 0,-0.2298 0,-0.4335 -0.0174,-0.608 -0.0088,-0.1502 -0.0088,-0.3007 0,-0.4509 -0.0121,-0.1913 0.0177,-0.3829 0.0873,-0.5615 0.0254,-0.0466 0.0622,-0.0861 0.1069,-0.1148 0.0447,-0.0287 0.0959,-0.0458 0.1489,-0.0495 0.053,-0.0038 0.1061,0.0058 0.1544,0.0279 0.0483,0.0221 0.0903,0.056 0.1221,0.0986 z"
       fill="#ffffff"
       id="path6164" />
    <path
       d="m 73.9724,18.7416 h -0.2037 c -0.0902,0.3724 -0.1891,0.7389 -0.2909,1.0996 -0.1018,0.3608 -0.224,0.7186 -0.3462,1.0735 -0.1338,-0.3782 -0.2589,-0.7477 -0.3781,-1.1084 -0.1193,-0.3607 -0.227,-0.7156 -0.3317,-1.0647 h -0.4451 c -0.1163,0.3433 -0.2327,0.6982 -0.3578,1.0589 -0.1251,0.3607 -0.2531,0.7418 -0.3927,1.1433 -0.1135,-0.3637 -0.2182,-0.7302 -0.3171,-1.0968 -0.0989,-0.3665 -0.192,-0.736 -0.2909,-1.1054 h -0.7477 c 0.1804,0.5197 0.3472,1.0317 0.5004,1.536 0.1542,0.5004 0.2909,0.9949 0.4189,1.4778 h 0.448 c 0.1222,-0.3753 0.2444,-0.7389 0.3695,-1.0967 0.1251,-0.3578 0.256,-0.7011 0.3869,-1.0386 0.1367,0.3724 0.2647,0.7389 0.384,1.0939 0.1193,0.3549 0.2269,0.701 0.3287,1.0414 h 0.4567 c 0.1775,-0.5614 0.352,-1.0909 0.5179,-1.5942 0.1658,-0.5032 0.3258,-0.9745 0.4829,-1.4196 z"
       fill="#ffffff"
       id="path6166" />
    <path
       d="m 75.328,19.5707 c -0.1412,-0.0073 -0.2823,0.0147 -0.4145,0.0648 -0.1322,0.0501 -0.2526,0.1271 -0.3535,0.2261 -0.0979,0.104 -0.1741,0.2266 -0.2241,0.3605 -0.0499,0.1338 -0.0726,0.2763 -0.0668,0.4191 -0.0182,0.3077 0.0864,0.6101 0.2909,0.8407 0.1066,0.102 0.2334,0.1805 0.3722,0.2306 0.1387,0.0501 0.2864,0.0707 0.4336,0.0604 0.1365,10e-5 0.2724,-0.0175 0.4044,-0.0524 0.1159,-0.0314 0.226,-0.0815 0.3258,-0.1484 l 0.096,-0.2502 -0.0407,-0.032 c -0.0821,0.0668 -0.1745,0.1198 -0.2735,0.1571 -0.093,0.0348 -0.1916,0.0525 -0.2909,0.0524 -0.0932,0.0031 -0.1859,-0.0156 -0.2707,-0.0544 -0.0849,-0.0389 -0.1595,-0.097 -0.218,-0.1696 -0.1305,-0.1738 -0.1954,-0.3881 -0.1833,-0.6051 h 1.3527 v -0.1396 c 0.01,-0.1308 -0.0063,-0.2621 -0.0477,-0.3865 -0.0415,-0.1244 -0.1073,-0.2393 -0.1937,-0.3379 -0.0941,-0.0849 -0.2046,-0.1495 -0.3247,-0.1901 -0.1201,-0.0405 -0.2472,-0.056 -0.3735,-0.0455 z m 0.3229,0.8407 v 0.0611 h -0.7476 v -0.0407 c -0.0111,-0.1726 0.0262,-0.3449 0.1076,-0.4975 0.028,-0.0528 0.0699,-0.0969 0.1212,-0.1277 0.0513,-0.0307 0.1099,-0.0469 0.1697,-0.0468 0.0531,-4e-4 0.1054,0.0137 0.151,0.0409 0.0456,0.0272 0.083,0.0664 0.1079,0.1132 0.0674,0.1404 0.0985,0.2955 0.0902,0.451 0.0015,0.0154 0.0015,0.031 0,0.0465 z"
       fill="#ffffff"
       id="path6168" />
    <path
       d="M 78.3476,21.4936 C 78.2943,21.3865 78.2731,21.2663 78.2865,21.1474 V 21.063 l 0.0146,-0.768 v -0.0232 c 0.0055,-0.0976 -0.0106,-0.1952 -0.0474,-0.2857 -0.0367,-0.0906 -0.093,-0.1718 -0.165,-0.238 -0.1746,-0.1332 -0.3918,-0.1983 -0.6109,-0.1832 -0.1372,10e-5 -0.273,0.0288 -0.3985,0.0843 -0.1415,0.0636 -0.272,0.149 -0.3869,0.2531 0.0145,0.0378 0.029,0.0756 0.0407,0.1164 0.0135,0.0568 0.032,0.1123 0.0553,0.1658 0.0577,-0.0988 0.1337,-0.1857 0.224,-0.256 0.0805,-0.0551 0.1758,-0.0845 0.2734,-0.0844 0.054,-5e-4 0.1076,0.0097 0.1575,0.0302 0.05,0.0205 0.0954,0.0508 0.1334,0.0891 0.0389,0.0428 0.0689,0.0928 0.0883,0.1472 0.0195,0.0545 0.0281,0.1122 0.0252,0.1699 v 0.0844 c -0.1485,0.0854 -0.3081,0.15 -0.4742,0.192 l -0.224,0.0698 c -0.134,0.0381 -0.2549,0.1126 -0.3491,0.2152 -0.0786,0.0948 -0.1209,0.2144 -0.1193,0.3375 -0.0043,0.0816 0.0076,0.1631 0.0351,0.2401 0.0275,0.0769 0.0699,0.1475 0.1249,0.2079 0.0574,0.0563 0.1258,0.1001 0.2009,0.1286 0.0751,0.0285 0.1552,0.0412 0.2355,0.0372 0.1211,0.0022 0.2406,-0.0279 0.3462,-0.0873 0.1041,-0.0571 0.1906,-0.1416 0.2502,-0.2443 0.0164,0.0922 0.0649,0.1756 0.1367,0.2356 0.0739,0.0571 0.1657,0.086 0.2589,0.0815 0.0783,10e-5 0.1564,-0.0087 0.2327,-0.0262 0.08,-0.0158 0.158,-0.0402 0.2328,-0.0727 V 21.5721 H 78.56 c -0.039,0.0029 -0.0781,-0.0027 -0.1147,-0.0162 -0.0366,-0.0136 -0.0699,-0.0348 -0.0977,-0.0623 z m -0.6371,-0.4044 c 0.0067,0.1076 -0.0208,0.2145 -0.0785,0.3055 -0.0262,0.0342 -0.0602,0.0615 -0.0992,0.0798 -0.039,0.0182 -0.0818,0.0267 -0.1248,0.0249 -0.0394,0.0026 -0.0789,-0.0046 -0.1149,-0.0208 -0.036,-0.0162 -0.0675,-0.0411 -0.0917,-0.0723 -0.0497,-0.0885 -0.0729,-0.1895 -0.0669,-0.2909 -0.004,-0.0653 0.0058,-0.1306 0.0289,-0.1918 0.0231,-0.0612 0.0588,-0.1168 0.105,-0.1631 0.1278,-0.1014 0.2805,-0.1667 0.4421,-0.1891 z"
       fill="#ffffff"
       id="path6170" />
    <path
       d="m 79.5491,18.4274 c -0.0606,0.004 -0.1208,0.0118 -0.1804,0.0233 h -0.2909 c -0.0611,0 -0.1193,0 -0.1804,-0.0233 0,0.2415 0.0175,0.4946 0.0233,0.768 0.0058,0.2735 0,0.5818 0,0.896 v 0.8727 c 0,0.2735 -0.0145,0.5295 -0.0233,0.7768 0.053,-0.0097 0.1064,-0.0165 0.16,-0.0204 0.1132,-0.0116 0.2273,-0.0116 0.3404,0 0.0527,0.0039 0.1052,0.0107 0.1571,0.0204 0,-0.2386 -0.0204,-0.4946 -0.0262,-0.7651 -0.0058,-0.2706 0,-0.5818 0,-0.8989 v -0.8757 c -0.0058,-0.2909 0.0087,-0.5236 0.0204,-0.7738 z"
       fill="#ffffff"
       id="path6172" />
    <path
       d="m 80.9687,21.5547 c -0.041,0.0037 -0.0821,-0.0063 -0.1168,-0.0284 -0.0348,-0.0221 -0.0612,-0.0551 -0.0752,-0.0938 -0.044,-0.2064 -0.0606,-0.4177 -0.0494,-0.6284 v -0.1774 c 0,-0.128 0,-0.3462 0.0145,-0.6517 v -0.1018 h 0.4364 c -0.0029,-0.0329 -0.0029,-0.066 0,-0.0989 v -0.1164 h -0.4277 v -0.3956 c -0.0021,-0.1409 0.0047,-0.2818 0.0204,-0.4218 l -0.0495,-0.0349 c -0.093,0.0465 -0.189,0.0902 -0.2909,0.1338 l -0.2909,0.1222 c -0.0034,0.0808 0.0015,0.1617 0.0146,0.2414 0.0073,0.0609 0.0073,0.1224 0,0.1833 v 0.1687 h -0.2909 v 0.0437 c 0.003,0.0241 0.003,0.0486 0,0.0727 v 0.1135 h 0.2909 v 1.3323 c -0.0063,0.079 0.0036,0.1585 0.0291,0.2335 0.0255,0.0751 0.0661,0.1441 0.1192,0.2029 0.0579,0.0529 0.1259,0.0936 0.1999,0.1196 0.0739,0.026 0.1524,0.0368 0.2307,0.0317 0.0804,5e-4 0.1606,-0.0093 0.2385,-0.0291 0.0922,-0.0232 0.1818,-0.0554 0.2677,-0.096 v -0.1513 c -0.0888,0.0195 -0.1797,0.0283 -0.2706,0.0262 z"
       fill="#ffffff"
       id="path6174" />
    <path
       d="m 83.4473,21.4121 v -0.9716 c 0.0039,-0.1423 -0.0068,-0.2846 -0.032,-0.4247 -0.0201,-0.0801 -0.0579,-0.1547 -0.1106,-0.2182 -0.06,-0.0721 -0.1369,-0.1281 -0.224,-0.1629 -0.093,-0.0348 -0.1916,-0.0525 -0.2909,-0.0524 -0.1354,-0.0027 -0.2693,0.0283 -0.3898,0.0902 -0.1181,0.0669 -0.218,0.1618 -0.2909,0.2764 v -1.1317 c 0.0037,-0.1305 0.0154,-0.2607 0.0349,-0.3898 l -0.1658,0.0262 h -0.3084 l -0.1716,-0.0262 c 0,0.1862 0.0232,0.4073 0.0291,0.6633 0.0058,0.256 0,0.6167 0,1.0763 v 0.995 c 0,0.2298 -0.0146,0.4218 -0.0291,0.5818 h 0.6429 c 0.0039,-0.1942 -0.0029,-0.3884 -0.0204,-0.5818 -0.0102,-0.1589 -0.0102,-0.3183 0,-0.4771 -0.0121,-0.1913 0.0177,-0.3829 0.0873,-0.5615 0.0285,-0.0483 0.0685,-0.0888 0.1165,-0.1177 0.0481,-0.029 0.1026,-0.0455 0.1586,-0.0481 0.056,-0.0026 0.1118,0.0088 0.1623,0.0332 0.0505,0.0244 0.0941,0.061 0.127,0.1064 0.0672,0.1993 0.0929,0.4101 0.0756,0.6197 v 0.5818 c 0.0053,0.1497 -0.0025,0.2996 -0.0233,0.448 h 0.6516 c -0.0158,-0.1109 -0.0255,-0.2226 -0.029,-0.3346 z"
       fill="#ffffff"
       id="path6176" />
    <path
       d="m 55.6247,25.7583 -0.2531,-2.112 h -0.4043 c -0.1629,0.3636 -0.3259,0.7156 -0.4946,1.0589 -0.1687,0.3433 -0.3374,0.6778 -0.512,1.0066 -0.1803,-0.3404 -0.3578,-0.6808 -0.5265,-1.0211 -0.1688,-0.3404 -0.3375,-0.6924 -0.4946,-1.0444 h -0.384 l -0.2909,2.0858 c -0.0112,0.1163 -0.0287,0.2318 -0.0523,0.3462 -0.0262,0.1629 -0.0582,0.3578 -0.0931,0.5818 l 0.0931,-0.0174 h 0.1658 l 0.096,0.0174 c 0,-0.3345 0.0378,-0.672 0.0814,-1.0036 v -0.0349 l 0.1077,-0.9164 c 0.1571,0.2909 0.3171,0.6022 0.4829,0.928 0.1658,0.3258 0.3287,0.6691 0.5003,1.0269 h 0.1862 c 0.1717,-0.3636 0.3404,-0.7156 0.5062,-1.0502 0.1658,-0.3345 0.3287,-0.6603 0.4945,-0.9774 l 0.1426,1.408 c 0,0.0756 0.0204,0.2647 0.032,0.5818 v 0.0436 l 0.1891,-0.0174 h 0.3491 l 0.2007,0.0145 C 55.7236,26.5583 55.7004,26.4419 55.68,26.3081 55.6596,26.1743 55.6509,25.991 55.6247,25.7583 Z"
       fill="#ffffff"
       id="path6178" />
    <path
       d="m 57.9055,26.4187 c -0.052,-0.1075 -0.0732,-0.2274 -0.0611,-0.3462 v -0.0844 l 0.0145,-0.768 v -0.0232 c 0.0056,-0.0976 -0.0106,-0.1952 -0.0473,-0.2857 -0.0368,-0.0906 -0.0931,-0.1718 -0.1651,-0.238 -0.1746,-0.1332 -0.3917,-0.1983 -0.6109,-0.1832 -0.1372,1e-4 -0.273,0.0288 -0.3985,0.0843 -0.1414,0.0636 -0.272,0.149 -0.3869,0.2531 0.0145,0.0349 0.0291,0.0727 0.0436,0.1164 0.0146,0.0436 0.032,0.096 0.0524,0.1658 0.0554,-0.1013 0.133,-0.1888 0.2269,-0.256 0.0788,-0.0565 0.1736,-0.0861 0.2705,-0.0844 0.0538,-7e-4 0.1072,0.0091 0.1571,0.0291 0.05,0.02 0.0954,0.0496 0.1338,0.0873 0.0784,0.0876 0.1191,0.2026 0.1135,0.32 v 0.0756 c -0.1476,0.0845 -0.3062,0.1482 -0.4713,0.1891 l -0.224,0.0727 c -0.1346,0.0388 -0.2562,0.1131 -0.352,0.2153 -0.0788,0.0966 -0.1191,0.2188 -0.1134,0.3433 -0.0049,0.082 0.0068,0.1642 0.0342,0.2417 0.0275,0.0774 0.0703,0.1486 0.1258,0.2092 0.0573,0.0563 0.1257,0.1 0.2008,0.1286 0.0751,0.0285 0.1553,0.0412 0.2355,0.0372 0.122,0.0019 0.2424,-0.0282 0.3491,-0.0873 0.1028,-0.0591 0.1881,-0.1444 0.2473,-0.2472 0.0131,0.0939 0.0617,0.1791 0.1359,0.2382 0.0742,0.059 0.1682,0.0872 0.2626,0.0789 0.0772,-4e-4 0.1542,-0.0082 0.2299,-0.0233 0.0796,-0.0172 0.1575,-0.0415 0.2327,-0.0727 v -0.1106 h -0.0146 c -0.0401,0.0047 -0.0808,4e-4 -0.1191,-0.0127 -0.0383,-0.0131 -0.0731,-0.0346 -0.1019,-0.0629 z m -0.6371,-0.4044 c 0.0034,0.1026 -0.024,0.204 -0.0786,0.2909 -0.0261,0.0342 -0.0602,0.0616 -0.0992,0.0798 -0.039,0.0182 -0.0818,0.0268 -0.1248,0.0249 -0.0392,0.0023 -0.0784,-0.0053 -0.114,-0.0221 -0.0356,-0.0167 -0.0664,-0.0421 -0.0896,-0.0739 -0.0533,-0.0872 -0.0777,-0.189 -0.0698,-0.2909 -0.004,-0.0648 0.0058,-0.1297 0.0289,-0.1904 0.0231,-0.0607 0.0588,-0.1158 0.1049,-0.1616 0.1278,-0.1014 0.2805,-0.1666 0.4422,-0.1891 z"
       fill="#ffffff"
       id="path6180" />
    <path
       d="M 60.1658,26.4187 C 59.9996,26.3601 59.8242,26.3315 59.648,26.3343 h -0.0785 c -0.419,0 -0.6255,-0.0902 -0.6255,-0.224 -0.0024,-0.0535 0.0164,-0.1059 0.0524,-0.1456 0.0359,-0.0398 0.0861,-0.0637 0.1396,-0.0668 h 0.0756 c 0.2585,0.0148 0.515,-0.0524 0.7331,-0.192 0.0847,-0.0604 0.1531,-0.1409 0.1988,-0.2344 0.0457,-0.0935 0.0674,-0.1969 0.063,-0.3008 0.0027,-0.0917 -0.0173,-0.1826 -0.0581,-0.2648 -0.0404,-0.0756 -0.0995,-0.1397 -0.1717,-0.1861 h 0.4364 v -0.2153 h -0.3956 c -0.1583,0.0022 -0.3166,-0.0036 -0.4742,-0.0175 l -0.2909,-0.0174 c -0.237,-0.0139 -0.4715,0.055 -0.6633,0.1949 -0.079,0.0602 -0.1426,0.1382 -0.1855,0.2277 -0.043,0.0895 -0.0642,0.1879 -0.0618,0.2872 -0.0047,0.0764 0.0057,0.153 0.0307,0.2254 0.025,0.0724 0.064,0.1391 0.1148,0.1964 0.1153,0.1164 0.2654,0.1919 0.4276,0.2153 v 0.0756 c -0.1239,0.0484 -0.2361,0.1228 -0.3287,0.2182 -0.0373,0.0386 -0.0665,0.0841 -0.086,0.1341 -0.0194,0.0499 -0.0288,0.1032 -0.0275,0.1568 -0.0028,0.0791 0.023,0.1566 0.0728,0.2182 0.0547,0.0641 0.1278,0.1098 0.2094,0.1309 v 0.0349 c -0.129,0.0388 -0.2455,0.1111 -0.3374,0.2095 -0.0766,0.0908 -0.1161,0.2071 -0.1106,0.3258 -6e-4,0.0853 0.0222,0.1691 0.0658,0.2424 0.0435,0.0733 0.1063,0.1333 0.1815,0.1736 0.2113,0.1133 0.45,0.1657 0.6894,0.1513 0.3119,0.0149 0.6196,-0.0763 0.8728,-0.2589 0.1058,-0.0756 0.1918,-0.1757 0.2505,-0.2917 0.0588,-0.116 0.0886,-0.2445 0.0869,-0.3745 0.0022,-0.1082 -0.0228,-0.2153 -0.0727,-0.3113 -0.0446,-0.0989 -0.1202,-0.1805 -0.2153,-0.2327 z M 59.0284,24.807 c 0.0244,-0.0426 0.0593,-0.0783 0.1013,-0.1038 0.042,-0.0254 0.0898,-0.0399 0.1389,-0.0419 0.0491,-0.002 0.0979,0.0084 0.1418,0.0303 0.044,0.0219 0.0817,0.0546 0.1096,0.0951 0.0605,0.109 0.0878,0.2334 0.0785,0.3578 0.0105,0.1516 -0.0165,0.3034 -0.0785,0.4422 -0.0484,0.0665 -0.1211,0.1112 -0.2023,0.1243 -0.0812,0.0131 -0.1643,-0.0065 -0.2312,-0.0545 C 59.0604,25.6362 59.037,25.6128 59.0167,25.5867 58.9561,25.463 58.929,25.3256 58.9382,25.1881 58.9297,25.055 58.9611,24.9223 59.0284,24.807 Z m 0.7127,2.752 c -0.1401,0.0901 -0.305,0.1339 -0.4713,0.1251 -0.1482,0.0081 -0.2939,-0.0408 -0.4073,-0.1367 -0.0506,-0.0457 -0.0906,-0.102 -0.1173,-0.1648 -0.0266,-0.0628 -0.0392,-0.1306 -0.0368,-0.1988 -0.0019,-0.0818 0.0193,-0.1624 0.0611,-0.2328 0.0395,-0.0686 0.0981,-0.1242 0.1687,-0.16 l 0.5091,0.0262 c 0.1262,-0.0023 0.2497,0.0365 0.352,0.1106 0.0388,0.0373 0.0688,0.0827 0.0879,0.133 0.0192,0.0503 0.0269,0.1042 0.0226,0.1579 0.003,0.0663 -0.0109,0.1324 -0.0404,0.1919 -0.0296,0.0595 -0.0737,0.1106 -0.1283,0.1484 z"
       fill="#ffffff"
       id="path6182" />
    <path
       d="m 62.3913,26.4187 c -0.052,-0.1075 -0.0732,-0.2274 -0.0611,-0.3462 v -0.8727 c 0.0055,-0.0976 -0.0106,-0.1952 -0.0474,-0.2857 -0.0367,-0.0906 -0.093,-0.1718 -0.165,-0.238 -0.1746,-0.1332 -0.3918,-0.1983 -0.6109,-0.1832 -0.1372,10e-5 -0.273,0.0289 -0.3985,0.0843 -0.1415,0.0636 -0.272,0.149 -0.3869,0.2531 0,0.0349 0.0291,0.0727 0.0436,0.1164 0.0145,0.0436 0.032,0.096 0.0524,0.1658 0.0554,-0.1013 0.1329,-0.1888 0.2269,-0.256 0.0787,-0.0565 0.1736,-0.0861 0.2705,-0.0844 0.0538,-7e-4 0.1072,0.0092 0.1571,0.0291 0.0499,0.02 0.0954,0.0497 0.1338,0.0873 0.0791,0.0874 0.1209,0.2022 0.1164,0.32 v 0.0465 c 0.0029,0.0095 0.0029,0.0197 0,0.0291 -0.1476,0.0846 -0.3062,0.1482 -0.4713,0.1891 l -0.224,0.0728 c -0.1346,0.0387 -0.2562,0.113 -0.352,0.2152 -0.0788,0.0966 -0.1192,0.2188 -0.1134,0.3433 -0.0049,0.082 0.0067,0.1642 0.0342,0.2417 0.0275,0.0774 0.0703,0.1486 0.1258,0.2092 0.0573,0.0563 0.1257,0.1001 0.2008,0.1286 0.0751,0.0285 0.1553,0.0412 0.2355,0.0372 0.122,0.0019 0.2424,-0.0282 0.3491,-0.0872 0.1028,-0.0592 0.1881,-0.1445 0.2473,-0.2473 0.013,0.0939 0.0617,0.1791 0.1359,0.2382 0.0742,0.059 0.1682,0.0872 0.2626,0.0789 0.0772,-4e-4 0.1542,-0.0082 0.2298,-0.0233 0.0797,-0.0172 0.1576,-0.0415 0.2328,-0.0727 v -0.1106 c -0.0408,0.0034 -0.0818,-0.0018 -0.1204,-0.0154 -0.0386,-0.0135 -0.0739,-0.035 -0.1036,-0.0631 z m -0.6342,-0.4044 c 0.0019,0.1025 -0.0254,0.2033 -0.0786,0.2909 -0.0276,0.0332 -0.0623,0.0599 -0.1016,0.078 -0.0392,0.0181 -0.082,0.0273 -0.1253,0.0268 -0.0392,0.0022 -0.0784,-0.0054 -0.114,-0.0222 -0.0356,-0.0167 -0.0664,-0.0421 -0.0896,-0.0739 -0.0533,-0.0872 -0.0777,-0.189 -0.0698,-0.2909 -0.0029,-0.0649 0.0078,-0.1297 0.0313,-0.1903 0.0235,-0.0607 0.0594,-0.1157 0.1054,-0.1617 0.1268,-0.1032 0.28,-0.1687 0.4422,-0.189 z"
       fill="#ffffff"
       id="path6184" />
    <path
       d="m 63.7702,24.5685 h -0.8727 c 0.0029,0.0154 0.0029,0.0312 0,0.0465 0.0029,0.0252 0.0029,0.0505 0,0.0757 0.003,0.0241 0.003,0.0486 0,0.0727 v 0.0465 h 0.0494 c 0.2579,-0.0116 0.447,-0.0174 0.5673,-0.0174 h 0.3636 l -0.4131,0.6313 c -0.3491,0.5352 -0.6051,0.9251 -0.7709,1.1636 v 0.0698 l 0.448,-0.0174 h 1.0502 l 0.4189,0.0174 v -0.2676 c -0.1222,0 -0.2473,0.0174 -0.3753,0.0203 -0.128,0.003 -0.2589,0 -0.3927,0 H 63.456 l 0.7447,-1.1636 0.4306,-0.6604 v -0.032 h -0.3986 z"
       fill="#ffffff"
       id="path6186" />
    <path
       d="m 65.6553,24.5539 h -0.6546 c 0,0.1891 0.0175,0.3724 0.0233,0.544 0.0058,0.1717 0,0.3433 0,0.512 v 0.4655 c 0.003,0.1942 -0.0047,0.3885 -0.0233,0.5818 l 0.1688,-0.0174 h 0.32 l 0.1658,0.0174 c 0,-0.224 -0.0175,-0.4189 -0.0233,-0.5818 -0.0058,-0.1629 0,-0.3229 0,-0.4684 v -0.512 c 0,-0.1745 0.0116,-0.352 0.0233,-0.5411 z"
       fill="#ffffff"
       id="path6188" />
    <path
       d="m 65.3324,23.4223 c -0.0886,-0.0032 -0.1748,0.0286 -0.2401,0.0885 -0.0653,0.0599 -0.1045,0.143 -0.109,0.2315 -0.0014,0.049 0.0078,0.0977 0.0269,0.1429 0.0191,0.0452 0.0476,0.0857 0.0836,0.1189 0.0304,0.0316 0.0671,0.0564 0.1077,0.073 0.0406,0.0165 0.0842,0.0243 0.128,0.023 0.0441,0.0049 0.0889,9e-4 0.1315,-0.0117 0.0426,-0.0126 0.0823,-0.0335 0.1167,-0.0617 0.0345,-0.0281 0.063,-0.0628 0.0838,-0.102 0.0209,-0.0393 0.0337,-0.0823 0.0378,-0.1265 0.0041,-0.0443 -8e-4,-0.0889 -0.0141,-0.1313 -0.0134,-0.0424 -0.0351,-0.0817 -0.0639,-0.1156 -0.0287,-0.0339 -0.0639,-0.0618 -0.1035,-0.0819 -0.0397,-0.0202 -0.0829,-0.0322 -0.1273,-0.0355 h -0.061 z"
       fill="#ffffff"
       id="path6190" />
    <path
       d="m 68.1426,25.9183 v -0.5527 c 0.0053,-0.1452 -0.0054,-0.2906 -0.032,-0.4335 -0.0169,-0.0783 -0.0529,-0.1513 -0.1048,-0.2123 -0.062,-0.0705 -0.1397,-0.1253 -0.2269,-0.16 -0.0925,-0.0371 -0.1913,-0.0559 -0.2909,-0.0553 -0.1313,-0.0019 -0.261,0.028 -0.3782,0.0873 -0.1151,0.0659 -0.2144,0.1563 -0.2909,0.2647 v -0.2909 h -0.6196 c 0.0116,0.1726 0.0203,0.3471 0.0262,0.5236 0.0058,0.1765 0.0058,0.354 0,0.5324 v 0.5004 c 0.0038,0.1846 -0.0049,0.3692 -0.0262,0.5527 l 0.1687,-0.0175 h 0.2909 l 0.1629,0.0175 c 0,-0.2289 -0.0058,-0.4325 -0.0174,-0.6109 v -0.4626 c -0.012,-0.1903 0.0178,-0.3809 0.0872,-0.5585 0.0255,-0.0543 0.0672,-0.0993 0.1193,-0.129 0.052,-0.0297 0.112,-0.0425 0.1717,-0.0368 0.0568,-0.0081 0.1148,9e-4 0.1665,0.0257 0.0518,0.0249 0.0951,0.0645 0.1244,0.1139 0.0672,0.1992 0.0929,0.4101 0.0756,0.6196 v 0.5819 c 0.0053,0.1497 -0.0025,0.2996 -0.0233,0.448 l 0.1717,-0.0175 h 0.3083 l 0.1746,0.0175 c 0,-0.1135 -0.0175,-0.2328 -0.0233,-0.355 -0.0058,-0.1221 -0.0145,-0.256 -0.0145,-0.3927 z"
       fill="#ffffff"
       id="path6192" />
    <path
       d="m 69.6407,24.4958 c -0.1416,-0.0072 -0.2831,0.0149 -0.4158,0.065 -0.1326,0.05 -0.2535,0.1269 -0.3551,0.2259 -0.0985,0.1036 -0.175,0.2261 -0.225,0.3601 -0.05,0.134 -0.0724,0.2767 -0.0659,0.4195 -0.0182,0.3077 0.0864,0.6101 0.2909,0.8407 0.1073,0.1019 0.2346,0.1804 0.3738,0.2305 0.1392,0.05 0.2873,0.0706 0.4349,0.0604 0.1365,2e-4 0.2725,-0.0174 0.4044,-0.0523 0.116,-0.0314 0.226,-0.0815 0.3258,-0.1484 l 0.096,-0.2502 -0.0436,-0.032 c -0.0811,0.0667 -0.1725,0.1198 -0.2706,0.1571 -0.093,0.0348 -0.1915,0.0525 -0.2909,0.0524 -0.0939,0.0029 -0.1872,-0.016 -0.2726,-0.0554 -0.0853,-0.0394 -0.1603,-0.0981 -0.219,-0.1715 -0.1281,-0.1749 -0.1918,-0.3886 -0.1804,-0.6051 h 1.3498 c 0.003,-0.0173 0.003,-0.035 0,-0.0524 0.003,-0.029 0.003,-0.0582 0,-0.0872 0.0177,-0.2643 -0.0702,-0.5248 -0.2443,-0.7244 -0.0929,-0.0848 -0.2025,-0.1493 -0.3217,-0.1894 -0.1192,-0.04 -0.2454,-0.0548 -0.3707,-0.0433 z m 0.3346,0.8407 v 0.0582 h -0.7477 v -0.0378 c -0.0093,-0.1722 0.0268,-0.3437 0.1048,-0.4975 0.0285,-0.0524 0.0705,-0.0962 0.1216,-0.1269 0.0512,-0.0307 0.1096,-0.0471 0.1693,-0.0476 0.0523,-2e-4 0.1037,0.0138 0.1488,0.0404 0.045,0.0266 0.0821,0.0649 0.1072,0.1108 0.0664,0.1417 0.0964,0.2977 0.0872,0.4538 z"
       fill="#ffffff"
       id="path6194" />
    <path
       d="m 53.3847,9.31031 c 0.2114,0.33212 0.4056,0.67487 0.5818,1.02689 L 54.5484,9.77577 C 54.2546,9.44437 53.9203,9.15117 53.5535,8.90304 53.6764,8.62145 53.7738,8.32936 53.8444,8.03031 L 53.0036,7.85577 C 52.8282,8.87779 52.4779,9.86191 51.968,10.7649 l 0.2909,0.2385 c 0.4527,-0.5089 0.8317,-1.07879 1.1258,-1.69309 z"
       fill="#ffffff"
       id="path6196" />
    <path
       d="M 59.904,7.7714 C 59.6418,7.13913 59.2847,6.55055 58.8451,6.02595 l -0.3317,0.16582 c 0.2213,0.62256 0.4011,1.25911 0.5382,1.90545 z"
       fill="#ffffff"
       id="path6198" />
    <path
       d="M 56.6167,7.29431 H 54.7724 L 55.1884,6.7125 C 54.6579,6.36614 54.0769,6.10412 53.4662,5.93577 l -0.1426,0.32 c 0.4016,0.31974 0.7816,0.66571 1.1375,1.03563 h -2.3098 v 0.46546 h 4.4654 z"
       fill="#ffffff"
       id="path6200" />
    <path
       d="m 54.0276,13.0456 v 2.7142 h 0.8902 v -2.9091 c 0.3694,0.4187 0.7151,0.8577 1.0356,1.3149 L 56.5673,13.482 C 56.063,13.0431 55.5095,12.6643 54.9178,12.3532 v -0.384 h 1.7193 v -0.4683 h -1.7193 v -0.9746 h -0.1745 c 0.2581,-0.3507 0.4831,-0.72469 0.672,-1.11708 0.221,0.31092 0.4157,0.63988 0.5818,0.98328 l 0.4858,-0.4451 c -0.0932,0.2618 -0.201,0.5182 -0.3229,0.768 l 0.2909,0.2153 c 0.1571,-0.2066 0.2909,-0.4335 0.4451,-0.6633 v 5.4429 h 0.9105 v -0.8 h 3.4909 V 14.4332 H 59.712 v -1.792 h 1.2014 V 12.1758 H 59.712 v -1.6175 h 1.1927 V 10.0929 H 59.712 V 8.70522 h 1.4545 V 8.23686 H 57.7571 C 57.9462,7.59138 58.071,6.92875 58.1294,6.25868 L 57.1869,6.0725 C 57.0327,7.58522 56.896,8.70522 56.544,9.76122 56.2702,9.46146 55.957,9.20017 55.6131,8.9845 55.7374,8.69342 55.8348,8.39155 55.904,8.08268 L 55.0633,7.87613 c -0.083,0.92315 -0.3396,1.82232 -0.7564,2.65017 h -0.2676 v 0.9746 h -1.952 v 0.4683 h 1.7105 c -0.4624,1.0439 -1.12,1.9899 -1.9374,2.7869 l 0.2181,0.2909 c 0.7585,-0.5518 1.4176,-1.2286 1.9491,-2.0014 z m 3.7498,-4.34038 h 1.0008 v 1.38768 h -1.0066 z m 0,1.85308 h 1.0008 v 1.6175 h -1.0066 z m 0,2.0829 h 1.0008 v 1.792 h -1.0066 z"
       fill="#ffffff"
       id="path6202" />
    <path
       d="M 70.9964,11.7307 C 70.4424,11.26 69.8206,10.8755 69.152,10.5903 l -0.1862,0.2909 c 0.5008,0.4848 0.9747,0.9966 1.4196,1.5331 z"
       fill="#ffffff"
       id="path6204" />
    <path
       d="m 69.3236,10.0929 h -1.9171 v 0.4654 h 4.8902 V 10.0929 H 70.2545 V 8.30086 h 2.176 V 7.83249 h -2.176 V 6.09286 h -0.9309 v 1.73963 h -2.1352 v 0.46837 h 2.1352 z"
       fill="#ffffff"
       id="path6206" />
    <path
       d="M 72.8058,13.9154 C 72.4564,13.1632 71.9834,12.4749 71.4065,11.879 l -0.2909,0.1949 c 0.3484,0.726 0.6402,1.4778 0.8728,2.2488 z"
       fill="#ffffff"
       id="path6208" />
    <path
       d="m 68.3782,14.2558 c 0,1.12 0.2065,1.2334 1.7222,1.2334 1.6145,0 1.533,-0.6633 1.056,-2.3622 H 70.784 c 0,1.3789 0,1.5128 -0.7476,1.5128 -0.6517,0 -0.7448,-0.1338 -0.7448,-0.5498 v -2.5368 h -0.9134 z"
       fill="#ffffff"
       id="path6210" />
    <path
       d="M 66.9702,7.83249 H 65.4691 L 66.0073,7.4194 C 65.5464,6.87249 65.0095,6.39442 64.4131,5.99977 l -0.2589,0.25891 c 0.2385,0.34036 0.6225,0.98327 0.9629,1.57381 H 63.52 v 0.46837 h 3.4502 z"
       fill="#ffffff"
       id="path6212" />
    <path
       d="m 65.8531,15.5532 h 0.7796 v -1.2538 l 0.6953,0.5178 c 0.4771,-0.6313 0.7156,-1.5447 0.7767,-2.6414 L 67.7411,12.103 c -0.1394,0.7968 -0.5274,1.5289 -1.1084,2.0917 v -2.0364 h -2.7869 v 3.552 h 0.8087 v -0.7564 h 1.1928 z m 0,-1.0676 H 64.672 v -1.8851 h 1.1811 z"
       fill="#ffffff"
       id="path6214" />
    <path
       d="m 66.7316,10.7038 h -2.912 v 0.4363 h 2.912 z"
       fill="#ffffff"
       id="path6216" />
    <path
       d="m 66.7316,9.2725 h -2.912 v 0.43636 h 2.912 z"
       fill="#ffffff"
       id="path6218" />
    <path
       d="m 48.256,15.0965 -0.0902,-0.0466 c -0.1347,-0.0962 -0.2814,-0.1744 -0.4363,-0.2327 -0.2415,-0.0611 -0.4975,-0.032 -0.739,-0.0843 -0.3403,-0.0728 -0.6778,-0.1571 -1.021,-0.2095 -0.4295,-0.0816 -0.8717,-0.0667 -1.2946,0.0436 -0.2063,0.0476 -0.3967,0.1478 -0.5527,0.2909 -0.0862,0.1271 -0.1374,0.2746 -0.1484,0.4277 -0.0349,0.1458 -0.0525,0.2952 -0.0524,0.4451 0.02,0.5597 0.1865,1.1044 0.483,1.5796 0.1494,0.2567 0.3207,0.5 0.512,0.7273 0.175,0.2327 0.3783,0.4428 0.605,0.6254 0.2072,0.1171 0.3836,0.2816 0.515,0.48 0.0989,0.16 0.1076,0.2066 0.2909,0.2909 0.3154,0.0925 0.6429,0.1376 0.9716,0.1339 0.434,0.0287 0.8698,0.0033 1.2975,-0.0757 0.317,-0.0552 0.3752,-0.2909 0.6341,-0.4305 0.2589,-0.1397 0.3608,-0.1629 0.4713,-0.4277 0.5004,-1.1927 -0.1164,-2.208 -0.8465,-3.069 -0.1722,-0.1885 -0.3748,-0.3468 -0.5993,-0.4684 z"
       fill="#ffffff"
       id="path6220" />
  </g>
</svg>
